<svg xmlns="http://www.w3.org/2000/svg" viewBox="0 0 64 48">
  <defs>
    <clipPath id="flag-en-clip">
      <rect x="1" y="1" width="62" height="46" rx="8" ry="8" />
    </clipPath>
  </defs>
  <g clip-path="url(#flag-en-clip)">
    <rect width="64" height="48" fill="#173f8a" />
    <path d="M0 5 0 0 8 0 64 37 64 48 56 48 0 11z" fill="#fff" />
    <path d="M64 5 64 0 56 0 0 37 0 48 8 48 64 11z" fill="#fff" />
    <path d="M0 7 0 1.5 5.5 1.5 64 39 64 46.5 58.5 46.5 0 9z" fill="#c8102e" />
    <path d="M64 7 64 1.5 58.5 1.5 0 39 0 46.5 5.5 46.5 64 9z" fill="#c8102e" />
    <rect x="26" width="12" height="48" fill="#fff" />
    <rect y="18" width="64" height="12" fill="#fff" />
    <rect x="28.5" width="7" height="48" fill="#c8102e" />
    <rect y="20.5" width="64" height="7" fill="#c8102e" />
  </g>
  <rect x="1" y="1" width="62" height="46" rx="8" ry="8" fill="none" stroke="rgba(15,23,42,0.2)" stroke-width="2" />
</svg>
